<?xml version="1.0" standalone="no"?>
<!DOCTYPE svg PUBLIC "-//W3C//DTD SVG 20010904//EN"
 "http://www.w3.org/TR/2001/REC-SVG-20010904/DTD/svg10.dtd">
<svg version="1.0" xmlns="http://www.w3.org/2000/svg"
 width="512.000000pt" height="512.000000pt" viewBox="0 0 512.000000 512.000000"
 preserveAspectRatio="xMidYMid meet">
<metadata>
Created by potrace 1.14, written by Peter Selinger 2001-2017
</metadata>
<g transform="translate(0.000000,512.000000) scale(0.100000,-0.100000)"
fill="#000000" stroke="none">
<path d="M1770 3965 c-41 -7 -89 -15 -106 -18 -150 -24 -418 -147 -569 -260
-91 -68 -244 -215 -288 -277 -163 -230 -262 -450 -292 -650 -2 -19 -9 -61 -13
-93 -30 -198 4 -480 83 -692 118 -316 332 -575 620 -752 358 -220 777 -275
1196 -159 47 13 105 32 130 43 l44 19 85 -32 c174 -64 353 -93 550 -88 172 4
268 21 430 74 485 159 849 550 975 1048 56 224 54 515 -5 744 -43 165 -143
371 -250 512 -219 293 -566 510 -910 570 -19 3 -46 9 -60 12 -56 13 -366 12
-445 -2 -148 -26 -262 -59 -341 -96 -17 -8 -45 -2 -125 25 -170 59 -291 80
-474 82 -94 2 -191 -3 -235 -10z"/>
</g>
</svg>
